<svg width="163" height="118" viewBox="0 0 163 118" fill="none" xmlns="http://www.w3.org/2000/svg">
<g clip-path="url(#clip0_2272_1354)">
<path d="M227.798 -91.8137H-77.646V214.663H227.798V-91.8137Z" fill="white"/>
<path d="M167.818 0H5.62061V134.973H167.818V0Z" fill="white"/>
<path d="M13.0203 17.4801V51.3735H28.7591V26.568C28.7591 24.8387 28.3508 23.6096 27.5395 22.886C26.7255 22.1624 25.6941 21.6942 24.4426 21.4813C23.1964 21.2632 21.9291 21.0557 20.6352 20.8641C18.5777 20.5316 16.9364 20.0766 15.7141 19.502C14.4892 18.922 13.593 18.2463 13.0203 17.4801Z" fill="#11CD95"/>
<path d="M32.0657 12.3614H33.858C33.858 14.2848 34.2186 15.6789 34.9398 16.5435C35.661 17.4108 36.6076 17.8923 37.7821 17.9908C38.9541 18.0839 40.2347 17.9588 41.6214 17.6183C43.0638 17.2858 44.477 16.6499 45.8637 15.7135C47.2557 14.777 48.7166 13.9017 50.2439 13.085C51.7764 12.2629 53.4574 11.8506 55.2816 11.8506C59.4443 11.8506 62.8912 12.7072 65.6221 14.4152C68.3584 16.1178 70.3125 18.4377 71.4871 21.3748C72.659 24.3065 72.9348 27.648 72.3143 31.3991C71.8821 34.2803 71.678 36.7305 71.6992 38.7524C71.7257 40.7743 72.4336 42.4105 73.8203 43.6582C74.7802 44.4749 75.8248 44.7756 76.949 44.5627C78.0732 44.3446 79.2107 43.6555 80.3641 42.4983L81.4458 43.6582C80.2421 45.2491 78.6486 46.7176 76.6627 48.0638C74.6741 49.4046 72.5424 50.4023 70.2674 51.0541C67.9898 51.6979 65.7733 51.8149 63.6176 51.4052C61.4594 51.0009 59.614 49.8383 58.0815 47.9148C56.9281 46.425 56.1857 44.7809 55.8543 42.9771C55.5202 41.1681 55.4353 39.2419 55.5997 37.1988C55.7694 35.1556 55.9974 33.0778 56.2891 30.9628C56.8618 27.2596 57.0872 24.3065 56.9679 22.0984C56.8459 19.885 56.4747 18.2408 55.8543 17.1607C55.2312 16.0753 54.4543 15.4368 53.521 15.2452C52.5877 15.0537 51.5934 15.1255 50.5408 15.4581C49.4802 15.7933 48.7697 16.4664 48.4091 17.48C48.0538 18.4883 47.8523 19.712 47.8045 21.1513V51.3733H32.0657V12.3614Z" fill="#11CD95"/>
<path d="M75.6187 12.3614H77.411C77.411 14.2848 77.7716 15.6789 78.4928 16.5435C79.214 17.4108 80.1605 17.8923 81.3351 17.9908C82.5071 18.0839 83.7877 17.9588 85.1744 17.6183C86.6168 17.2858 88.03 16.6499 89.4167 15.7135C90.8087 14.777 92.2696 13.9017 93.7968 13.085C95.3294 12.2629 97.0104 11.8506 98.8345 11.8506C102.997 11.8506 106.444 12.7072 109.175 14.4152C111.911 16.1178 113.865 18.4377 115.04 21.3748C116.212 24.3065 116.488 27.648 115.867 31.3991C115.435 34.2803 115.231 36.7305 115.252 38.7524C115.279 40.7743 115.987 42.4105 117.373 43.6582C118.333 44.4749 119.378 44.7756 120.502 44.5627C121.626 44.3446 122.764 43.6555 123.917 42.4983L124.999 43.6582C123.795 45.2491 122.202 46.7176 120.216 48.0638C118.227 49.4046 116.095 50.4023 113.82 51.0541C111.543 51.6979 109.326 51.8149 107.171 51.4052C105.012 51.0009 103.167 49.8383 101.634 47.9148C100.481 46.425 99.7387 44.7809 99.4073 42.9771C99.0732 41.1681 98.9883 39.2419 99.1527 37.1988C99.3224 35.1556 99.5504 33.0778 99.8421 30.9628C100.415 27.2596 100.64 24.3065 100.521 22.0984C100.399 19.885 100.028 18.2408 99.4073 17.1607C98.7842 16.0753 98.0073 15.4368 97.074 15.2452C96.1407 15.0537 95.1464 15.1255 94.0938 15.4581C93.0332 15.7933 92.3226 16.4664 91.962 17.48C91.6068 18.4883 91.4052 19.712 91.3575 21.1513V51.3733H75.6187V12.3614Z" fill="#11CD95"/>
<path d="M34.4569 104.029C36.5197 103.888 38.1052 103.048 39.2082 101.507C40.3112 99.9696 41.0165 97.9717 41.3294 95.5161C41.6396 93.0633 41.5892 90.4162 41.1809 87.5775C40.7779 84.7336 40.0699 81.9428 39.0598 79.2026C38.0549 76.4571 36.8113 74.0149 35.3265 71.8706C33.8417 69.729 32.1607 68.154 30.2888 67.1458H51.1503C52.0624 68.3961 52.6138 70.2265 52.8048 72.6368C52.9957 75.0418 52.8631 77.7235 52.4123 80.6818C51.9589 83.6402 51.1821 86.6384 50.0791 89.6739C48.9761 92.7041 47.547 95.4815 45.7944 98.0063C44.0391 100.534 41.9763 102.579 39.6006 104.146C37.2303 105.708 34.5576 106.488 31.5827 106.488C27.4094 106.488 23.9466 105.634 21.1891 103.923C18.4317 102.215 16.4855 99.8792 15.356 96.9208C14.2318 93.9625 13.956 90.6077 14.5288 86.8539C15.0087 83.9674 15.2234 81.5012 15.1757 79.458C15.1333 77.4095 14.4147 75.784 13.0227 74.5842C12.0603 73.7621 11.0024 73.4722 9.85164 73.7116C8.70092 73.9537 7.57141 74.6268 6.46841 75.7335L5.323 74.5842C6.52675 72.9959 8.1229 71.5274 10.1168 70.1786C12.1027 68.8324 14.245 67.8348 16.5438 67.1883C18.8479 66.5365 21.0778 66.4168 23.236 66.8265C25.3916 67.2309 27.237 68.3961 28.7722 70.3169C29.9229 71.7642 30.6653 73.403 30.9994 75.2333C31.3388 77.0584 31.4369 78.9951 31.2964 81.0436C31.1532 83.0868 30.9146 85.1699 30.5752 87.2902C30.0025 90.9935 29.7267 93.9784 29.7479 96.2398C29.7692 98.5037 29.9945 100.204 30.4267 101.337C30.8642 102.465 31.4396 103.21 32.1554 103.572C32.8766 103.928 33.6429 104.08 34.4569 104.029Z" fill="#11CD95"/>
<path d="M53.6699 106.201V72.2753C54.2426 73.0415 55.1388 73.7173 56.3637 74.2972C57.586 74.8719 59.2299 75.3268 61.2954 75.6593C62.5893 75.8589 63.8567 76.069 65.1028 76.2872C66.3543 76.5 67.3857 76.9682 68.1997 77.6919C69.019 78.4102 69.43 79.634 69.43 81.3632V106.201H53.6699ZM70.7981 65.337C70.7981 67.8431 69.9549 69.9023 68.2739 71.5198C66.5982 73.132 64.3657 73.9354 61.5817 73.9354C58.803 73.9354 56.5705 73.132 54.8895 71.5198C53.2138 69.9023 52.376 67.8431 52.376 65.337C52.376 62.791 53.2138 60.7133 54.8895 59.1011C56.5705 57.4836 58.803 56.6748 61.5817 56.6748C64.3657 56.6748 66.5982 57.4836 68.2739 59.1011C69.9549 60.7133 70.7981 62.791 70.7981 65.337Z" fill="#11CD95"/>
<path d="M90.9401 79.8519C90.9401 81.7248 90.5079 83.2413 89.6462 84.3959C88.7818 85.5531 87.6895 86.4816 86.369 87.184C85.0539 87.881 83.7335 88.4929 82.4131 89.0249C81.0901 89.5517 79.9473 90.1157 78.9875 90.717C78.033 91.3209 77.4841 92.0791 77.3436 92.9942C77.1951 93.952 77.3595 94.8539 77.8421 95.6972C78.322 96.5432 79.3056 96.9635 80.7904 96.9635C82.0419 96.9635 83.1343 96.5219 84.0676 95.6334C85.0009 94.7395 85.9236 93.7285 86.8357 92.6005C87.7478 91.4672 88.7659 90.4562 89.8901 89.5677C91.0196 88.6738 92.4037 88.2268 94.037 88.2268C96.3835 88.2268 98.2156 88.7802 99.5307 89.8869C100.851 90.9936 101.8 92.4382 102.373 94.218C102.951 96.0005 103.253 97.9372 103.275 100.028C103.301 102.122 103.195 104.155 102.956 106.126H101.302C101.302 104.538 101.156 103.274 100.867 102.338C100.575 101.401 99.6182 100.933 97.9929 100.933C97.1285 100.933 96.3967 101.225 95.7975 101.805C95.1956 102.38 94.5832 103.056 93.9627 103.827C93.3396 104.594 92.5469 105.264 91.5871 105.839C90.6246 106.413 89.3519 106.701 87.769 106.701C85.7539 106.701 83.7866 106.256 81.8722 105.37C79.9552 104.476 78.3723 102.888 77.1209 100.603C75.8747 98.3203 75.2543 95.1093 75.2543 90.9724V68.806H70.2166V67.1459H75.2543C78.611 67.1459 81.3101 66.6431 83.3464 65.6348C85.388 64.6212 86.8781 63.3575 87.8114 61.8464C88.7447 60.33 89.2114 58.7763 89.2114 57.1854H90.9401V67.1459H101.662V68.806H90.9401V79.8519Z" fill="#11CD95"/>
<path d="M118.857 88.5885C118.997 88.8306 119.138 89.0834 119.281 89.3441C119.43 89.6075 119.599 89.8602 119.79 90.0996C123.961 96.6974 128.243 100.249 132.634 100.752C137.024 101.257 141.28 99.2248 145.403 94.6542C145.642 94.8458 145.883 95.0639 146.124 95.3034C146.363 95.5454 146.58 95.7822 146.771 96.0163C144.756 98.3309 142.786 100.281 140.864 101.869C138.947 103.46 136.765 104.663 134.32 105.477C131.873 106.291 128.829 106.7 125.188 106.7C120.867 106.7 117.099 105.849 113.883 104.146C110.672 102.439 108.166 100.079 106.363 97.0698C104.566 94.0636 103.669 90.5865 103.669 86.6411C103.669 82.6905 104.566 79.224 106.363 76.2443C108.166 73.2594 110.672 70.9103 113.883 69.1996C117.099 67.4917 120.867 66.635 125.188 66.635C128.977 66.635 132.011 67.1777 134.288 68.2632C136.563 69.3486 138.003 70.7719 138.605 72.5304C139.204 74.2836 138.915 76.1592 137.735 78.1598C136.56 80.1551 134.415 82.0759 131.297 83.9275C128.179 85.7792 124.032 87.3328 118.857 88.5885ZM124.966 74.8716C123.481 72.4187 121.776 70.8437 119.854 70.1467C117.937 69.4444 116.285 69.5269 114.901 70.3915C113.077 71.5993 112.536 73.6584 113.278 76.5742C114.021 79.4847 115.569 82.9804 117.924 87.0668C119.931 86.6358 121.702 85.843 123.237 84.6937C124.777 83.5391 125.764 82.1185 126.196 80.4371C126.625 78.7504 126.217 76.8935 124.966 74.8716Z" fill="#11CD95"/>
<path d="M123.566 60.7533L126.981 48.7177L131.107 49.8989L130.746 51.1652L130.799 51.1759C132.183 50.4043 133.485 50.1915 134.702 50.5374C135.577 50.7874 136.346 51.2025 137.004 51.7824C137.666 52.3571 138.088 53.078 138.266 53.9427C139.899 52.8147 141.429 52.4582 142.858 52.8679C144.136 53.2297 145.133 53.9054 145.849 54.8898C146.57 55.8768 146.71 57.1404 146.273 58.6781L144.025 66.6061L139.878 65.4143L141.808 58.6037C141.991 57.9652 141.97 57.3852 141.744 56.8584C141.516 56.3264 141.055 55.9619 140.355 55.7624C139.745 55.5868 139.225 55.64 138.796 55.922C138.372 56.1987 138.075 56.5871 137.905 57.0819L135.869 64.265L131.722 63.0838L133.652 56.2732C133.835 55.6347 133.814 55.0547 133.589 54.5279C133.361 53.9959 132.894 53.6287 132.189 53.4212C131.552 53.2456 131.014 53.3095 130.577 53.6128C130.144 53.9187 129.85 54.3444 129.696 54.8898L127.692 61.9345L123.566 60.7533Z" fill="#11CD95"/>
<path d="M155.306 69.9953L148.21 64.3659C147.664 65.0549 147.481 65.7387 147.659 66.4197C147.842 67.1061 148.195 67.6568 148.72 68.0692C149.271 68.5001 149.762 68.7715 150.194 68.8779C150.623 68.9843 151.214 68.979 151.965 68.8673L153.439 72.0278C151.085 72.935 148.722 72.4482 146.354 70.5699C144.875 69.3993 144.011 67.8882 143.756 66.0366C143.501 64.193 143.936 62.5568 145.061 61.1309C146.185 59.6996 147.675 58.8908 149.536 58.7046C151.395 58.513 153.063 59.0026 154.542 60.1731C156.09 61.4075 156.995 62.8628 157.257 64.5362C157.525 66.2016 157.003 67.8696 155.687 69.5377C155.502 69.7718 155.375 69.9234 155.306 69.9953ZM149.769 62.5568L153.492 65.5045C153.816 64.9459 153.927 64.3978 153.821 63.8657C153.715 63.3337 153.407 62.8654 152.898 62.4611C152.339 62.0141 151.777 61.8066 151.212 61.8332C150.652 61.8625 150.172 62.1046 149.769 62.5568Z" fill="#11CD95"/>
<mask id="mask0_2272_1354" style="mask-type:luminance" maskUnits="userSpaceOnUse" x="17" y="6" width="14" height="11">
<path d="M17.042 6.99854H30.0976V16.1928H17.042V6.99854Z" fill="white"/>
</mask>
<g mask="url(#mask0_2272_1354)">
<path fill-rule="evenodd" clip-rule="evenodd" d="M21.9019 13.8437H25.4124C26.7063 13.8437 27.7536 12.7928 27.7536 11.4945C27.7536 10.1989 26.7063 9.14807 25.4124 9.14807V6.79895C27.9976 6.79895 30.0948 8.90066 30.0948 11.4945C30.0948 14.0911 27.9976 16.1928 25.4124 16.1928H21.9019C19.3168 16.1928 17.2222 14.0911 17.2222 11.4945V10.3213H19.5607V11.4945C19.5607 12.7928 20.6107 13.8437 21.9019 13.8437Z" fill="#11CD95"/>
</g>
<mask id="mask1_2272_1354" style="mask-type:luminance" maskUnits="userSpaceOnUse" x="11" y="6" width="14" height="11">
<path d="M11.2617 6.99854H24.5082V16.1928H11.2617V6.99854Z" fill="white"/>
</mask>
<g mask="url(#mask1_2272_1354)">
<path fill-rule="evenodd" clip-rule="evenodd" d="M19.5606 9.14807H16.0501C14.7589 9.14807 13.7089 10.1989 13.7089 11.4945C13.7089 12.7928 14.7589 13.8437 16.0501 13.8437V16.1928C13.465 16.1928 11.3704 14.0911 11.3704 11.4945C11.3704 8.90066 13.465 6.79895 16.0501 6.79895H19.5606C22.1458 6.79895 24.243 8.90066 24.243 11.4945V12.6704H21.9018V11.4945C21.9018 10.1989 20.8545 9.14807 19.5606 9.14807Z" fill="#11CD95"/>
</g>
</g>
<defs>
<clipPath id="clip0_2272_1354">
<rect width="163" height="118" fill="white"/>
</clipPath>
</defs>
</svg>
