<svg width="49" height="48" viewBox="0 0 49 48" fill="none" xmlns="http://www.w3.org/2000/svg">
<g clip-path="url(#clip0_2150_12583)">
<path d="M48.4313 29.0344C46.7719 31.1906 44.6344 32.9344 42.1969 34.1344C41.2032 27.9563 35.8407 23.2125 29.3813 23.2125C28.2 23.2125 27.0188 23.3719 25.8844 23.6906C25.5563 23.3344 25.2188 23.0063 24.8719 22.6875C24.3 22.1625 23.6813 21.675 23.0344 21.2344C25.1063 18.2719 27.9844 16.1344 31.275 15.2906C32.25 15.6844 33.3188 15.9 34.4344 15.9C35.55 15.9 36.6188 15.6844 37.5938 15.2906C42.9469 16.6781 47.2313 21.4969 48.7032 27.7219C48.8157 28.1813 48.7126 28.6594 48.4313 29.0344Z" fill="#11CD95"/>
<path d="M34.4344 14.8688C38.5403 14.8688 41.8688 11.5403 41.8688 7.43438C41.8688 3.32848 38.5403 0 34.4344 0C30.3285 0 27 3.32848 27 7.43438C27 11.5403 30.3285 14.8688 34.4344 14.8688Z" fill="#11CD95"/>
<path d="M24.6656 24.1031C22.9031 22.3218 20.7843 21.0187 18.45 20.3718C16.2937 21.2906 13.8468 21.2906 11.6906 20.3718C6.4312 21.825 2.24995 26.6062 0.787454 32.7375C0.674954 33.1968 0.778079 33.675 1.0687 34.05C4.4062 38.4 9.5812 40.9499 15.0562 40.9499C15.7875 40.9499 16.5187 40.9031 17.25 40.8187C14.7187 34.1531 18.0187 26.6906 24.6656 24.1031Z" fill="#11CD95"/>
<path d="M15.0655 19.8938C19.1714 19.8938 22.4999 16.5653 22.4999 12.4594C22.4999 8.35351 19.1714 5.02502 15.0655 5.02502C10.9596 5.02502 7.6311 8.35351 7.6311 12.4594C7.6311 16.5653 10.9596 19.8938 15.0655 19.8938Z" fill="#11CD95"/>
<path d="M29.3811 24.375C22.8561 24.375 17.5686 29.6625 17.5686 36.1875C17.5686 42.7125 22.8561 48 29.3811 48C35.9061 48 41.1936 42.7125 41.1936 36.1875C41.1936 29.6625 35.9061 24.375 29.3811 24.375ZM35.9811 32.1375L26.8217 41.2969C26.5311 41.5875 26.053 41.5875 25.7624 41.2969L22.0311 37.5656C21.7405 37.275 21.7405 36.7969 22.0311 36.5062C22.3217 36.2156 22.7999 36.2156 23.0905 36.5062L26.2874 39.7031L34.9124 31.0781C35.203 30.7875 35.6811 30.7875 35.9717 31.0781C36.2624 31.3688 36.2717 31.8469 35.9811 32.1375Z" fill="#11CD95"/>
</g>
<defs>
<clipPath id="clip0_2150_12583">
<rect width="48" height="48" fill="white" transform="translate(0.75)"/>
</clipPath>
</defs>
</svg>
