<svg width="49" height="48" viewBox="0 0 49 48" fill="none" xmlns="http://www.w3.org/2000/svg">
<g clip-path="url(#clip0_2150_12607)">
<path d="M45.0475 3.70259C40.1107 -1.2342 32.079 -1.2342 27.1422 3.70259L19.7857 11.0591C18.502 12.3428 17.4618 13.9806 16.7914 15.9802C16.7802 15.9839 16.7693 15.9896 16.758 15.9934C15.2333 20.5803 16.3897 25.5683 19.7857 28.9643C20.8003 29.9789 21.9942 30.8144 23.2872 31.4312L23.7646 30.9537C25.4159 29.3024 25.4159 26.6366 23.7646 24.9852C21.0192 22.2398 21.0192 17.7833 23.7646 15.0379L31.1211 7.68143C33.8666 4.93596 38.323 4.93596 41.0684 7.68143C43.8139 10.4269 43.8139 14.8833 41.0684 17.6288L35.4826 23.2146C36.2275 25.5176 36.3852 27.9563 36.0248 30.3299C36.6131 29.9199 37.1791 29.4761 37.6909 28.9643L45.0474 21.6078C49.9842 16.671 49.9842 8.63927 45.0475 3.70259Z" fill="#11CD95"/>
<path d="M29.7331 19.0169C28.7185 18.0023 27.5249 17.1667 26.2119 16.5698L25.7542 17.0275C24.103 18.6787 24.1029 21.3446 25.7542 22.996C28.4997 25.7414 28.4997 30.1979 25.7542 32.9433C23.4303 35.2672 20.5951 38.1028 18.3794 40.3185C15.634 43.064 11.1776 43.064 8.43211 40.3185C5.68664 37.5731 5.68664 33.1167 8.43211 30.3712L14.0362 24.7666C13.2914 22.4637 13.1337 20.0248 13.4941 17.6512C12.9058 18.0614 12.3397 18.5052 11.8278 19.0169L4.45307 26.3922C-0.483707 31.3289 -0.483707 39.3606 4.45307 44.2975C9.38986 49.2343 17.4215 49.2342 22.3584 44.2975L29.7331 36.9222C31.0169 35.6384 32.057 34.0007 32.7274 32.0011C32.7387 31.9974 32.7495 31.9917 32.7608 31.9879C34.2855 27.4009 33.1291 22.4129 29.7331 19.0169ZM41.6699 38.9116L39.6805 36.9222C39.1306 36.3723 38.2408 36.3723 37.691 36.9222C37.1412 37.472 37.1412 38.3619 37.691 38.9116L39.6805 40.9011C40.2303 41.4509 41.1202 41.4509 41.6699 40.9011C42.2197 40.3512 42.2197 39.4615 41.6699 38.9116ZM11.8278 9.0695L9.83826 7.08003C9.28842 6.53018 8.39854 6.53018 7.84879 7.08003C7.29895 7.62987 7.29895 8.51975 7.84879 9.0695L9.83826 11.059C10.3881 11.6088 11.278 11.6088 11.8278 11.059C12.3777 10.5091 12.3777 9.61925 11.8278 9.0695ZM46.8651 28.4571L44.147 27.7285C43.3961 27.5274 42.6248 27.9723 42.4237 28.7232C42.2225 29.4788 42.6726 30.247 43.4185 30.4467L46.1366 31.1752C46.8875 31.3763 47.6588 30.9313 47.8599 30.1804C48.0589 29.4295 47.6159 28.6543 46.8651 28.4571ZM6.10026 17.5346L3.38217 16.8059C2.63123 16.6048 1.85995 17.0498 1.65886 17.8007C1.45757 18.5561 1.90767 19.3243 2.65364 19.524L5.37173 20.2527C6.12267 20.4537 6.89395 20.0088 7.09504 19.2579C7.2951 18.506 6.84829 17.7307 6.10026 17.5346ZM31.944 45.3677L31.2154 42.6496C31.0134 41.8958 30.243 41.4537 29.4921 41.6548C28.7412 41.8559 28.2962 42.6272 28.4973 43.3782L29.2259 46.0962C29.4256 46.8422 30.1939 47.2922 30.9493 47.091C31.7002 46.8899 32.145 46.1187 31.944 45.3677ZM21.0213 4.60287L20.2927 1.88478C20.0925 1.13093 19.3203 0.690872 18.5694 0.889997C17.8184 1.09109 17.3735 1.86237 17.5746 2.61331L18.3032 5.3314C18.3668 5.56958 18.4921 5.78675 18.6665 5.96093C18.8412 6.1358 19.0588 6.26162 19.2976 6.32573C19.5363 6.38984 19.7877 6.39 20.0265 6.32618C20.7775 6.12518 21.2224 5.35381 21.0213 4.60287Z" fill="#11CD95"/>
</g>
<defs>
<clipPath id="clip0_2150_12607">
<rect width="48" height="48" fill="white" transform="translate(0.75)"/>
</clipPath>
</defs>
</svg>
