<svg width="49" height="48" viewBox="0 0 49 48" fill="none" xmlns="http://www.w3.org/2000/svg">
<path d="M18.028 12.0344C12.3721 17.8861 13.6063 27.5974 20.085 31.8993C20.2985 32.0411 20.5825 32.013 20.7658 31.8338C22.1298 30.5012 23.2836 29.2103 24.2939 27.5686C24.4485 27.3174 24.3524 26.9915 24.093 26.851C23.1048 26.3156 22.1215 25.3117 21.5679 24.2513L21.5673 24.2517C20.9042 22.9313 20.6784 21.4512 21.0295 19.9225C21.0299 19.9227 21.0302 19.9227 21.0306 19.9227C21.4346 17.9657 23.5356 16.1452 25.1403 14.4615L25.1303 14.458L31.1426 8.3216C33.5386 5.87617 37.4798 5.856 39.9006 8.27687C42.346 10.6728 42.3864 14.6338 39.9905 17.0791L36.3487 20.8241C36.2663 20.9091 36.2092 21.0154 36.1837 21.131C36.1582 21.2466 36.1654 21.367 36.2044 21.4788C37.0429 23.9104 37.2491 27.339 36.6872 29.9293C36.6715 30.0018 36.7609 30.0493 36.8128 29.9963L44.5636 22.0855C49.5149 17.032 49.4729 8.80416 44.4703 3.80149C39.3649 -1.30389 31.0535 -1.2614 26.0006 3.89575L18.059 12.0012C18.0485 12.0122 18.0386 12.0235 18.028 12.0344Z" fill="#11CD95"/>
<path d="M32.518 33.0137L32.5176 33.0145L32.5321 33.0084C34.1139 30.1159 34.4253 26.7986 33.684 23.5647L33.6806 23.5682L33.6769 23.5666C32.973 20.6863 31.0416 17.8263 28.4184 16.0653C28.1927 15.9138 27.8323 15.9314 27.621 16.1023C26.2922 17.1766 24.9916 18.5544 24.1334 20.3125C24.0684 20.4452 24.0561 20.5977 24.0991 20.7391C24.1422 20.8805 24.2372 21.0003 24.3652 21.0743C25.3612 21.6525 26.2606 22.4991 26.8629 23.623L26.8638 23.6223C27.3331 24.4163 27.7956 25.9227 27.4961 27.5414H27.4954C27.2159 29.6875 25.0487 31.656 23.326 33.4298L23.3268 33.4306C22.0154 34.7716 18.6818 38.1701 17.3469 39.5338C14.951 41.9792 10.99 42.0196 8.54464 39.6237C6.0993 37.2278 6.05887 33.2668 8.45479 30.8214L12.1073 27.0652C12.1884 26.9817 12.245 26.8776 12.2712 26.7642C12.2973 26.6508 12.2919 26.5324 12.2555 26.4218C11.4445 23.9334 11.2223 20.5821 11.7342 17.9947C11.7485 17.9226 11.6598 17.8765 11.6083 17.929L3.97407 25.7208C-1.02805 30.8262 -0.985652 39.1384 4.06842 44.1924C9.17352 49.1943 17.4429 49.1098 22.4448 44.0047C24.1825 42.061 31.6209 35.1739 32.518 33.0137Z" fill="#11CD95"/>
</svg>
