<svg width="49" height="48" viewBox="0 0 49 48" fill="none" xmlns="http://www.w3.org/2000/svg">
<g clip-path="url(#clip0_2150_12579)">
<path d="M29.2159 10.7357C31.4353 12.1273 32.9916 14.4821 33.2749 17.2154C34.2056 17.6532 35.2212 17.8806 36.2497 17.8815C40.138 17.8815 43.2895 14.7301 43.2895 10.8424C43.2895 6.95409 40.138 3.80261 36.2497 3.80261C32.3986 3.80381 29.2746 6.89898 29.2159 10.7357ZM24.604 25.1495C28.4923 25.1495 31.6438 21.9974 31.6438 18.1098C31.6438 14.2221 28.4917 11.0706 24.604 11.0706C20.7163 11.0706 17.5631 14.2227 17.5631 18.1104C17.5631 21.998 20.7163 25.1495 24.604 25.1495ZM27.5902 25.6293H21.6167C16.6466 25.6293 12.6031 29.6734 12.6031 34.6435V41.9486L12.6217 42.063L13.1249 42.2206C17.868 43.7026 21.9887 44.1968 25.3804 44.1968C32.005 44.1968 35.8448 42.308 36.0814 42.1876L36.5516 41.9498H36.6019V34.6435C36.6037 29.6734 32.5603 25.6293 27.5902 25.6293ZM39.237 18.362H33.3097C33.2495 20.6507 32.287 22.8228 30.632 24.4049C35.0499 25.7186 38.2822 29.8153 38.2822 34.6543V36.9054C44.1347 36.691 47.5072 35.0323 47.7295 34.9208L48.1997 34.6824H48.25V27.3749C48.25 22.4054 44.2066 18.362 39.237 18.362ZM12.2515 17.8827C13.6287 17.8827 14.91 17.4808 15.9954 16.7961C16.336 14.5932 17.508 12.6046 19.2703 11.2395C19.2775 11.1077 19.2901 10.9772 19.2901 10.8442C19.2901 6.95589 16.138 3.80441 12.2515 3.80441C8.36262 3.80441 5.21174 6.95589 5.21174 10.8442C5.21174 14.7307 8.36262 17.8827 12.2515 17.8827ZM18.5736 24.4049C16.9279 22.8304 15.9668 20.6721 15.8978 18.3955C15.6779 18.3793 15.4605 18.362 15.2364 18.362H9.26355C4.29343 18.362 0.25 22.4054 0.25 27.3749V34.6812L0.26857 34.7938L0.771752 34.9526C4.57677 36.1405 7.97265 36.688 10.9223 36.8605V34.6543C10.9235 29.8153 14.1546 25.7198 18.5736 24.4049Z" fill="#11CD95"/>
</g>
<defs>
<clipPath id="clip0_2150_12579">
<rect width="48" height="48" fill="white" transform="translate(0.25)"/>
</clipPath>
</defs>
</svg>
